<svg width="1200" height="600" viewBox="0 0 1200 600" fill="none" xmlns="http://www.w3.org/2000/svg">
<g clip-path="url(#clip0_592_891)">
<rect width="1200" height="600" fill="url(#paint0_linear_592_891)"/>
<path d="M682.891 192.862C676.775 188.714 669.586 186.5 662.231 186.5C652.371 186.51 642.918 190.491 635.946 197.568C628.975 204.645 625.053 214.241 625.043 224.25C625.043 231.716 627.224 239.015 631.31 245.223C635.397 251.431 641.204 256.269 648 259.126C654.795 261.984 662.272 262.731 669.486 261.275C676.699 259.818 683.325 256.223 688.526 250.943C693.727 245.664 697.269 238.937 698.704 231.615C700.138 224.292 699.402 216.702 696.587 209.804C693.773 202.906 689.006 197.01 682.891 192.862Z" fill="#5F6266"/>
<path d="M458.763 405.629C463.412 410.349 469.718 413 476.293 413H535.46L626.275 320.811L575.956 269.841C569.241 263.054 560.23 259.121 550.758 258.843C541.287 258.566 532.067 261.964 524.978 268.347L451.501 334.645V387.833C451.501 394.508 454.113 400.909 458.763 405.629Z" fill="#5F6266"/>
<path d="M741.74 405.629C746.389 400.909 749.001 394.508 749.001 387.833V348.385L712.349 317.382C705.659 311.668 697.191 308.545 688.448 308.568C679.706 308.591 671.254 311.759 664.594 317.508L570.525 413H724.21C730.785 413 737.091 410.349 741.74 405.629Z" fill="#5F6266"/>
</g>
<defs>
<linearGradient id="paint0_linear_592_891" x1="600" y1="0" x2="600" y2="600" gradientUnits="userSpaceOnUse">
<stop stop-color="#979A9E"/>
<stop offset="1" stop-color="#BCBFC3"/>
</linearGradient>
<clipPath id="clip0_592_891">
<rect width="1200" height="600" fill="white"/>
</clipPath>
</defs>
</svg>
